# xmcd CD database file
#
# Track frame offsets:
#	150
#	14025
#	30715
#	46575
#	73160
#	92270
#	108445
#	127722
#	151270
#	166917
#	185652
#	204917
#
# Disc length: 2980 seconds
#
# Revision: 2
# Processed by: cddbd v1.5.2PL0 Copyright (c) Steve Scherf et al.
# Submitted via: CDex 1.70beta3
#
DISCID=8f0ba20c
DTITLE=John Lennon and Paul McCartney - John Lennon and Paul McCartney
DYEAR=1900
DGENRE=Pop
TTITLE0=Imagine
TTITLE1=Another Day
TTITLE2=Stand By Me
TTITLE3=Silly Love Songs
TTITLE4=Mind Games
TTITLE5=Listen To What The Man Said
TTITLE6=Jealous Guy
TTITLE7=Band On The Run
TTITLE8=Whatever Gets You Thru The Night
TTITLE9=Jet
TTITLE10=Happy X'Mas (Was Is Over)
TTITLE11=My Love
EXTD=
EXTT0=
EXTT1=
EXTT2=
EXTT3=
EXTT4=
EXTT5=
EXTT6=
EXTT7=
EXTT8=
EXTT9=
EXTT10=
EXTT11=
PLAYORDER=
